# xmcd
# Copyright (C) 1995-1998 Ti Kan
#
# Track frame offsets:
#       150
#       26310
#       42923
#       53698
#       66410
#       89752
#       95435
#       107088
#       112524
#       152397
#       167080
#       178385
#       192532
#       196457
#       210485
#       222542
#       236863
#       255614
#       266118
#       285796
#
# Disc length: 4073 seconds
#
# Revision: 0
# Processed by: cddbd v1.5.2PL0 Copyright (c) Steve Scherf et al.
# Submitted via: CD-Import v1.0
#
DISCID=210fe714
DTITLE=Larry Bang Bang - Greatest Hits
DYEAR=1900
DGENRE=
TTITLE0=Intro
TTITLE1=Hey Cowboy
TTITLE2=Sam Hall
TTITLE3=Ballad Of Cable Hogue
TTITLE4=Dirty Old Town
TTITLE5=Geronimo and Pancho Part 1
TTITLE6=If You Lovin' Me
TTITLE7=Texas
TTITLE8=Larry Bang Bang Vs Billy The Kid
TTITLE9=Brauner
TTITLE10=Sea Of Heartbreak
TTITLE11=Laila
TTITLE12=La Oklahoma Blanca
TTITLE13=Freunde (Für Immer)
TTITLE14=Psychedelische Kuhscheisse
TTITLE15=California Dreamin'
TTITLE16=Geronimo and Pancho Part 2
TTITLE17=Mona (I Need You Baby)
TTITLE18=Exile Cowboy
TTITLE19=House Of The Rising Sun
EXTD=
EXTT0=
EXTT1=
EXTT2=
EXTT3=
EXTT4=
EXTT5=
EXTT6=
EXTT7=
EXTT8=
EXTT9=
EXTT10=
EXTT11=
EXTT12=
EXTT13=
EXTT14=
EXTT15=
EXTT16=
EXTT17=
EXTT18=
EXTT19=
PLAYORDER=
